<?xml version="1.0" encoding="UTF-8" standalone="no"?><svg xmlns="http://www.w3.org/2000/svg" xmlns:xlink="http://www.w3.org/1999/xlink" clip-rule="evenodd" stroke-miterlimit="4.00" viewBox="0 0 720 540"><desc>SVG generated by Keynote</desc><defs></defs><g transform="matrix(1.00, 0.00, -0.00, -1.00, 0.0, 540.0)"><path d="M 0.0 540.0 L 720.0 540.0 L 720.0 0.0 L 0.0 0.0 Z M 0.0 540.0 " fill="#FFFFFF"></path><image xlink:href="2DB4539094361DFA4BE86EB031D6E5C1.png" width="720.00" height="509.00" transform="matrix(1.00, 0.00, -0.00, -1.06, 0.0, 540.0)"></image><text xml:space="preserve" font-family="Helvetica-Light" font-size="22.4" fill="#000000" transform="matrix(1.00, 0.00, -0.00, -1.00, 55.0, 475.0)">W</text><text xml:space="preserve" font-family="Helvetica-Light" font-size="22.4" fill="#000000" transform="matrix(1.00, 0.00, -0.00, -1.00, 74.9, 475.0)">h</text><text xml:space="preserve" font-family="Helvetica-Light" font-size="22.4" fill="#000000" transform="matrix(1.00, 0.00, -0.00, -1.00, 87.4, 475.0)">a</text><text xml:space="preserve" font-family="Helvetica-Light" font-size="22.4" fill="#000000" transform="matrix(1.00, 0.00, -0.00, -1.00, 99.8, 475.0)">t</text><text xml:space="preserve" font-family="Helvetica-Light" font-size="22.4" fill="#000000" transform="matrix(1.00, 0.00, -0.00, -1.00, 106.0, 475.0)"> </text><text xml:space="preserve" font-family="Helvetica-Light" font-size="22.4" fill="#000000" transform="matrix(1.00, 0.00, -0.00, -1.00, 112.3, 475.0)">i</text><text xml:space="preserve" font-family="Helvetica-Light" font-size="22.4" fill="#000000" transform="matrix(1.00, 0.00, -0.00, -1.00, 117.2, 475.0)">s</text><text xml:space="preserve" font-family="Helvetica-Light" font-size="22.4" fill="#000000" transform="matrix(1.00, 0.00, -0.00, -1.00, 128.4, 475.0)"> </text><text xml:space="preserve" font-family="Helvetica-Light" font-size="22.4" fill="#000000" transform="matrix(1.00, 0.00, -0.00, -1.00, 134.7, 475.0)">t</text><text xml:space="preserve" font-family="Helvetica-Light" font-size="22.4" fill="#000000" transform="matrix(1.00, 0.00, -0.00, -1.00, 140.9, 475.0)">h</text><text xml:space="preserve" font-family="Helvetica-Light" font-size="22.4" fill="#000000" transform="matrix(1.00, 0.00, -0.00, -1.00, 153.4, 475.0)">e</text><text xml:space="preserve" font-family="Helvetica-Light" font-size="22.4" fill="#000000" transform="matrix(1.00, 0.00, -0.00, -1.00, 165.8, 475.0)"> </text><text xml:space="preserve" font-family="Helvetica-Light" font-size="22.4" fill="#000000" transform="matrix(1.00, 0.00, -0.00, -1.00, 172.0, 475.0)">a</text><text xml:space="preserve" font-family="Helvetica-Light" font-size="22.4" fill="#000000" transform="matrix(1.00, 0.00, -0.00, -1.00, 184.5, 475.0)">b</text><text xml:space="preserve" font-family="Helvetica-Light" font-size="22.4" fill="#000000" transform="matrix(1.00, 0.00, -0.00, -1.00, 198.2, 475.0)">s</text><text xml:space="preserve" font-family="Helvetica-Light" font-size="22.4" fill="#000000" transform="matrix(1.00, 0.00, -0.00, -1.00, 209.4, 475.0)">o</text><text xml:space="preserve" font-family="Helvetica-Light" font-size="22.4" fill="#000000" transform="matrix(1.00, 0.00, -0.00, -1.00, 221.8, 475.0)">l</text><text xml:space="preserve" font-family="Helvetica-Light" font-size="22.4" fill="#000000" transform="matrix(1.00, 0.00, -0.00, -1.00, 226.8, 475.0)">u</text><text xml:space="preserve" font-family="Helvetica-Light" font-size="22.4" fill="#000000" transform="matrix(1.00, 0.00, -0.00, -1.00, 239.3, 475.0)">t</text><text xml:space="preserve" font-family="Helvetica-Light" font-size="22.4" fill="#000000" transform="matrix(1.00, 0.00, -0.00, -1.00, 245.5, 475.0)">e</text><text xml:space="preserve" font-family="Helvetica-Light" font-size="22.4" fill="#000000" transform="matrix(1.00, 0.00, -0.00, -1.00, 257.9, 475.0)"> </text><text xml:space="preserve" font-family="LucidaGrande" font-size="22.4" fill="#000000" transform="matrix(1.00, 0.00, -0.00, -1.00, 264.2, 475.0)"> </text><text xml:space="preserve" font-family="Helvetica-Light" font-size="22.4" fill="#000000" transform="matrix(1.00, 0.00, -0.00, -1.00, 55.0, 451.0)">b</text><text xml:space="preserve" font-family="Helvetica-Light" font-size="22.4" fill="#000000" transform="matrix(1.00, 0.00, -0.00, -1.00, 68.7, 451.0)">e</text><text xml:space="preserve" font-family="Helvetica-Light" font-size="22.4" fill="#000000" transform="matrix(1.00, 0.00, -0.00, -1.00, 81.1, 451.0)">s</text><text xml:space="preserve" font-family="Helvetica-Light" font-size="22.4" fill="#000000" transform="matrix(1.00, 0.00, -0.00, -1.00, 92.3, 451.0)">t</text><text xml:space="preserve" font-family="Helvetica-Light" font-size="22.4" fill="#000000" transform="matrix(1.00, 0.00, -0.00, -1.00, 98.6, 451.0)"> </text><text xml:space="preserve" font-family="Helvetica-Light" font-size="22.4" fill="#000000" transform="matrix(1.00, 0.00, -0.00, -1.00, 104.8, 451.0)">o</text><text xml:space="preserve" font-family="Helvetica-Light" font-size="22.4" fill="#000000" transform="matrix(1.00, 0.00, -0.00, -1.00, 117.2, 451.0)">r</text><text xml:space="preserve" font-family="Helvetica-Light" font-size="22.4" fill="#000000" transform="matrix(1.00, 0.00, -0.00, -1.00, 124.7, 451.0)"> </text><text xml:space="preserve" font-family="Helvetica-Light" font-size="22.4" fill="#000000" transform="matrix(1.00, 0.00, -0.00, -1.00, 130.9, 451.0)">w</text><text xml:space="preserve" font-family="Helvetica-Light" font-size="22.4" fill="#000000" transform="matrix(1.00, 0.00, -0.00, -1.00, 147.1, 451.0)">o</text><text xml:space="preserve" font-family="Helvetica-Light" font-size="22.4" fill="#000000" transform="matrix(1.00, 0.00, -0.00, -1.00, 159.6, 451.0)">r</text><text xml:space="preserve" font-family="Helvetica-Light" font-size="22.4" fill="#000000" transform="matrix(1.00, 0.00, -0.00, -1.00, 167.0, 451.0)">s</text><text xml:space="preserve" font-family="Helvetica-Light" font-size="22.4" fill="#000000" transform="matrix(1.00, 0.00, -0.00, -1.00, 178.2, 451.0)">t</text><text xml:space="preserve" font-family="Helvetica-Light" font-size="22.4" fill="#000000" transform="matrix(1.00, 0.00, -0.00, -1.00, 184.4, 451.0)"> </text><text xml:space="preserve" font-family="Helvetica-Light" font-size="22.4" fill="#000000" transform="matrix(1.00, 0.00, -0.00, -1.00, 190.7, 451.0)">r</text><text xml:space="preserve" font-family="Helvetica-Light" font-size="22.4" fill="#000000" transform="matrix(1.00, 0.00, -0.00, -1.00, 197.7, 451.0)">o</text><text xml:space="preserve" font-family="Helvetica-Light" font-size="22.4" fill="#000000" transform="matrix(1.00, 0.00, -0.00, -1.00, 210.2, 451.0)">l</text><text xml:space="preserve" font-family="Helvetica-Light" font-size="22.4" fill="#000000" transform="matrix(1.00, 0.00, -0.00, -1.00, 215.2, 451.0)">e</text><text xml:space="preserve" font-family="Helvetica-Light" font-size="22.4" fill="#000000" transform="matrix(1.00, 0.00, -0.00, -1.00, 227.6, 451.0)"> </text><text xml:space="preserve" font-family="Helvetica-Light" font-size="22.4" fill="#000000" transform="matrix(1.00, 0.00, -0.00, -1.00, 233.8, 451.0)">c</text><text xml:space="preserve" font-family="Helvetica-Light" font-size="22.4" fill="#000000" transform="matrix(1.00, 0.00, -0.00, -1.00, 246.3, 451.0)">o</text><text xml:space="preserve" font-family="Helvetica-Light" font-size="22.4" fill="#000000" transform="matrix(1.00, 0.00, -0.00, -1.00, 258.8, 451.0)">m</text><text xml:space="preserve" font-family="Helvetica-Light" font-size="22.4" fill="#000000" transform="matrix(1.00, 0.00, -0.00, -1.00, 277.4, 451.0)">b</text><text xml:space="preserve" font-family="Helvetica-Light" font-size="22.4" fill="#000000" transform="matrix(1.00, 0.00, -0.00, -1.00, 291.1, 451.0)">i</text><text xml:space="preserve" font-family="Helvetica-Light" font-size="22.4" fill="#000000" transform="matrix(1.00, 0.00, -0.00, -1.00, 296.1, 451.0)">n</text><text xml:space="preserve" font-family="Helvetica-Light" font-size="22.4" fill="#000000" transform="matrix(1.00, 0.00, -0.00, -1.00, 308.5, 451.0)">a</text><text xml:space="preserve" font-family="Helvetica-Light" font-size="22.4" fill="#000000" transform="matrix(1.00, 0.00, -0.00, -1.00, 321.0, 451.0)">t</text><text xml:space="preserve" font-family="Helvetica-Light" font-size="22.4" fill="#000000" transform="matrix(1.00, 0.00, -0.00, -1.00, 327.2, 451.0)">i</text><text xml:space="preserve" font-family="Helvetica-Light" font-size="22.4" fill="#000000" transform="matrix(1.00, 0.00, -0.00, -1.00, 332.2, 451.0)">o</text><text xml:space="preserve" font-family="Helvetica-Light" font-size="22.4" fill="#000000" transform="matrix(1.00, 0.00, -0.00, -1.00, 344.6, 451.0)">n</text><text xml:space="preserve" font-family="Helvetica-Light" font-size="22.4" fill="#000000" transform="matrix(1.00, 0.00, -0.00, -1.00, 357.1, 451.0)"> </text><text xml:space="preserve" font-family="Helvetica-Light" font-size="22.4" fill="#000000" transform="matrix(1.00, 0.00, -0.00, -1.00, 363.3, 451.0)">o</text><text xml:space="preserve" font-family="Helvetica-Light" font-size="22.4" fill="#000000" transform="matrix(1.00, 0.00, -0.00, -1.00, 375.8, 451.0)">f</text><text xml:space="preserve" font-family="Helvetica-Light" font-size="22.4" fill="#000000" transform="matrix(1.00, 0.00, -0.00, -1.00, 382.0, 451.0)"> </text><text xml:space="preserve" font-family="LucidaGrande" font-size="22.4" fill="#000000" transform="matrix(1.00, 0.00, -0.00, -1.00, 388.2, 451.0)"> </text><text xml:space="preserve" font-family="Helvetica-Light" font-size="22.4" fill="#000000" transform="matrix(1.00, 0.00, -0.00, -1.00, 55.0, 428.0)">t</text><text xml:space="preserve" font-family="Helvetica-Light" font-size="22.4" fill="#000000" transform="matrix(1.00, 0.00, -0.00, -1.00, 61.2, 428.0)">e</text><text xml:space="preserve" font-family="Helvetica-Light" font-size="22.4" fill="#000000" transform="matrix(1.00, 0.00, -0.00, -1.00, 73.7, 428.0)">a</text><text xml:space="preserve" font-family="Helvetica-Light" font-size="22.4" fill="#000000" transform="matrix(1.00, 0.00, -0.00, -1.00, 86.1, 428.0)">m</text><text xml:space="preserve" font-family="Helvetica-Light" font-size="22.4" fill="#000000" transform="matrix(1.00, 0.00, -0.00, -1.00, 104.8, 428.0)"> </text><text xml:space="preserve" font-family="Helvetica-Light" font-size="22.4" fill="#000000" transform="matrix(1.00, 0.00, -0.00, -1.00, 111.0, 428.0)">m</text><text xml:space="preserve" font-family="Helvetica-Light" font-size="22.4" fill="#000000" transform="matrix(1.00, 0.00, -0.00, -1.00, 129.7, 428.0)">e</text><text xml:space="preserve" font-family="Helvetica-Light" font-size="22.4" fill="#000000" transform="matrix(1.00, 0.00, -0.00, -1.00, 142.1, 428.0)">m</text><text xml:space="preserve" font-family="Helvetica-Light" font-size="22.4" fill="#000000" transform="matrix(1.00, 0.00, -0.00, -1.00, 160.8, 428.0)">b</text><text xml:space="preserve" font-family="Helvetica-Light" font-size="22.4" fill="#000000" transform="matrix(1.00, 0.00, -0.00, -1.00, 174.5, 428.0)">e</text><text xml:space="preserve" font-family="Helvetica-Light" font-size="22.4" fill="#000000" transform="matrix(1.00, 0.00, -0.00, -1.00, 186.9, 428.0)">r</text><text xml:space="preserve" font-family="Helvetica-Light" font-size="22.4" fill="#000000" transform="matrix(1.00, 0.00, -0.00, -1.00, 194.4, 428.0)">s</text><text xml:space="preserve" font-family="Helvetica-Light" font-size="22.4" fill="#000000" transform="matrix(1.00, 0.00, -0.00, -1.00, 205.6, 428.0)"> </text><text xml:space="preserve" font-family="Helvetica-Light" font-size="22.4" fill="#000000" transform="matrix(1.00, 0.00, -0.00, -1.00, 211.8, 428.0)">?</text><path d="M 155.2 327.8 L 564.8 327.8 L 564.8 197.2 L 155.2 197.2 Z M 155.2 327.8 " fill="#FFFFFF"></path><g><clipPath id="clip-0"><path d="M 151.9 197.2 L 575.3 197.2 L 575.3 331.1 L 151.9 331.1 Z M 151.9 197.2 "></path></clipPath><g clip-path="url(#clip-0)"><text xml:space="preserve" font-family="TrebuchetMS" font-size="24.0" fill="#888888" transform="matrix(1.00, 0.00, -0.00, -1.00, 324.4, 301.5)">M</text><text xml:space="preserve" font-family="TrebuchetMS" font-size="24.0" fill="#888888" transform="matrix(1.00, 0.00, -0.00, -1.00, 341.4, 301.5)">.</text><text xml:space="preserve" font-family="TrebuchetMS" font-size="24.0" fill="#888888" transform="matrix(1.00, 0.00, -0.00, -1.00, 350.2, 301.5)"> </text><text xml:space="preserve" font-family="TrebuchetMS" font-size="24.0" fill="#888888" transform="matrix(1.00, 0.00, -0.00, -1.00, 357.5, 301.5)">O</text><text xml:space="preserve" font-family="TrebuchetMS" font-size="24.0" fill="#888888" transform="matrix(1.00, 0.00, -0.00, -1.00, 373.6, 301.5)">c</text><text xml:space="preserve" font-family="TrebuchetMS" font-size="24.0" fill="#888888" transform="matrix(1.00, 0.00, -0.00, -1.00, 385.5, 301.5)">h</text><text xml:space="preserve" font-family="TrebuchetMS" font-size="24.0" fill="#888888" transform="matrix(1.00, 0.00, -0.00, -1.00, 398.7, 301.5)">i</text><text xml:space="preserve" font-family="TrebuchetMS" font-size="24.0" fill="#888888" transform="matrix(1.00, 0.00, -0.00, -1.00, 405.5, 301.5)"> </text><text xml:space="preserve" font-family="TrebuchetMS" font-size="24.0" fill="#888888" transform="matrix(1.00, 0.00, -0.00, -1.00, 412.8, 301.5)">/</text><text xml:space="preserve" font-family="TrebuchetMS" font-size="24.0" fill="#888888" transform="matrix(1.00, 0.00, -0.00, -1.00, 425.4, 301.5)"> </text><text xml:space="preserve" font-family="TrebuchetMS" font-size="24.0" fill="#888888" transform="matrix(1.00, 0.00, -0.00, -1.00, 432.2, 301.5)">Y</text><text xml:space="preserve" font-family="TrebuchetMS" font-size="24.0" fill="#888888" transform="matrix(1.00, 0.00, -0.00, -1.00, 442.0, 301.5)">.</text><text xml:space="preserve" font-family="TrebuchetMS" font-size="24.0" fill="#888888" transform="matrix(1.00, 0.00, -0.00, -1.00, 450.8, 301.5)"> </text><text xml:space="preserve" font-family="TrebuchetMS" font-size="24.0" fill="#888888" transform="matrix(1.00, 0.00, -0.00, -1.00, 458.1, 301.5)">F</text><text xml:space="preserve" font-family="TrebuchetMS" font-size="24.0" fill="#888888" transform="matrix(1.00, 0.00, -0.00, -1.00, 470.7, 301.5)">u</text><text xml:space="preserve" font-family="TrebuchetMS" font-size="24.0" fill="#888888" transform="matrix(1.00, 0.00, -0.00, -1.00, 483.8, 301.5)">k</text><text xml:space="preserve" font-family="TrebuchetMS" font-size="24.0" fill="#888888" transform="matrix(1.00, 0.00, -0.00, -1.00, 495.9, 301.5)">a</text><text xml:space="preserve" font-family="TrebuchetMS" font-size="24.0" fill="#888888" transform="matrix(1.00, 0.00, -0.00, -1.00, 508.5, 301.5)">s</text><text xml:space="preserve" font-family="TrebuchetMS" font-size="24.0" fill="#888888" transform="matrix(1.00, 0.00, -0.00, -1.00, 518.2, 301.5)">a</text><text xml:space="preserve" font-family="TrebuchetMS" font-size="24.0" fill="#888888" transform="matrix(1.00, 0.00, -0.00, -1.00, 530.8, 301.5)">w</text><text xml:space="preserve" font-family="TrebuchetMS" font-size="24.0" fill="#888888" transform="matrix(1.00, 0.00, -0.00, -1.00, 548.7, 301.5)">a</text><text xml:space="preserve" font-family="TrebuchetMS" font-size="24.0" fill="#888888" transform="matrix(1.00, 0.00, -0.00, -1.00, 561.2, 301.5)"> </text><text xml:space="preserve" font-family="TrebuchetMS" font-size="24.0" fill="#888888" transform="matrix(1.00, 0.00, -0.00, -1.00, 435.3, 266.3)">2</text><text xml:space="preserve" font-family="TrebuchetMS" font-size="24.0" fill="#888888" transform="matrix(1.00, 0.00, -0.00, -1.00, 447.9, 266.3)">0</text><text xml:space="preserve" font-family="TrebuchetMS" font-size="24.0" fill="#888888" transform="matrix(1.00, 0.00, -0.00, -1.00, 460.5, 266.3)">1</text><text xml:space="preserve" font-family="TrebuchetMS" font-size="24.0" fill="#888888" transform="matrix(1.00, 0.00, -0.00, -1.00, 473.1, 266.3)">6</text><text xml:space="preserve" font-family="TrebuchetMS" font-size="24.0" fill="#888888" transform="matrix(1.00, 0.00, -0.00, -1.00, 485.7, 266.3)">/</text><text xml:space="preserve" font-family="TrebuchetMS" font-size="24.0" fill="#888888" transform="matrix(1.00, 0.00, -0.00, -1.00, 498.3, 266.3)">0</text><text xml:space="preserve" font-family="TrebuchetMS" font-size="24.0" fill="#888888" transform="matrix(1.00, 0.00, -0.00, -1.00, 510.9, 266.3)">5</text><text xml:space="preserve" font-family="TrebuchetMS" font-size="24.0" fill="#888888" transform="matrix(1.00, 0.00, -0.00, -1.00, 523.5, 266.3)">/</text><text xml:space="preserve" font-family="TrebuchetMS" font-size="24.0" fill="#888888" transform="matrix(1.00, 0.00, -0.00, -1.00, 536.1, 266.3)">0</text><text xml:space="preserve" font-family="TrebuchetMS" font-size="24.0" fill="#888888" transform="matrix(1.00, 0.00, -0.00, -1.00, 548.7, 266.3)">8</text><text xml:space="preserve" font-family="TrebuchetMS" font-size="24.0" fill="#888888" transform="matrix(1.00, 0.00, -0.00, -1.00, 561.2, 266.3)"> </text><text xml:space="preserve" font-family="TrebuchetMS" font-size="24.0" fill="#888888" transform="matrix(1.00, 0.00, -0.00, -1.00, 568.5, 266.3)"> </text></g></g></g></svg>